<?xml version="1.0" encoding="UTF-8" standalone="no"?>
<!DOCTYPE svg PUBLIC "-//W3C//DTD SVG 1.1//EN"
 "http://www.w3.org/Graphics/SVG/1.1/DTD/svg11.dtd">
<!-- Generated by graphviz version 10.0.1 (20240210.2158)
 -->
<!-- Title: ast_attributed Pages: 1 -->
<svg width="6814pt" height="895pt"
 viewBox="0.00 0.00 6813.69 895.14" xmlns="http://www.w3.org/2000/svg" xmlns:xlink="http://www.w3.org/1999/xlink">
<g id="graph0" class="graph" transform="scale(1 1) rotate(0) translate(4 891.14)">
<title>ast_attributed</title>
<polygon fill="white" stroke="none" points="-4,4 -4,-891.14 6809.69,-891.14 6809.69,4 -4,4"/>
<!-- 1 -->
<g id="node1" class="node">
<title>1</title>
<polygon fill="none" stroke="black" points="3352.53,-887.14 3226.28,-887.14 3226.28,-847.64 3352.53,-847.64 3352.53,-887.14"/>
<text text-anchor="middle" x="3289.41" y="-869.84" font-family="Times New Roman,serif" font-size="14.00">NONTERMINAL</text>
<text text-anchor="middle" x="3289.41" y="-854.09" font-family="Times New Roman,serif" font-size="14.00">type: Nonterminal.S</text>
</g>
<!-- 2 -->
<g id="node2" class="node">
<title>2</title>
<polygon fill="none" stroke="black" points="3387.03,-811.64 3191.78,-811.64 3191.78,-772.14 3387.03,-772.14 3387.03,-811.64"/>
<text text-anchor="middle" x="3289.41" y="-794.34" font-family="Times New Roman,serif" font-size="14.00">NONTERMINAL</text>
<text text-anchor="middle" x="3289.41" y="-778.59" font-family="Times New Roman,serif" font-size="14.00">type: Nonterminal.FRAGMENT</text>
</g>
<!-- 1&#45;&gt;2 -->
<g id="edge1" class="edge">
<title>1&#45;&gt;2</title>
<path fill="none" stroke="black" d="M3289.41,-847.46C3289.41,-840.14 3289.41,-831.58 3289.41,-823.44"/>
<polygon fill="black" stroke="black" points="3292.91,-823.52 3289.41,-813.52 3285.91,-823.52 3292.91,-823.52"/>
</g>
<!-- 3 -->
<g id="node3" class="node">
<title>3</title>
<polygon fill="none" stroke="black" points="3394.91,-736.14 3183.91,-736.14 3183.91,-696.64 3394.91,-696.64 3394.91,-736.14"/>
<text text-anchor="middle" x="3289.41" y="-718.84" font-family="Times New Roman,serif" font-size="14.00">NONTERMINAL</text>
<text text-anchor="middle" x="3289.41" y="-703.09" font-family="Times New Roman,serif" font-size="14.00">type: Nonterminal.CODE_BLOCK</text>
</g>
<!-- 2&#45;&gt;3 -->
<g id="edge2" class="edge">
<title>2&#45;&gt;3</title>
<path fill="none" stroke="black" d="M3289.41,-771.96C3289.41,-764.64 3289.41,-756.08 3289.41,-747.94"/>
<polygon fill="black" stroke="black" points="3292.91,-748.02 3289.41,-738.02 3285.91,-748.02 3292.91,-748.02"/>
</g>
<!-- 4 -->
<g id="node4" class="node">
<title>4</title>
<polygon fill="none" stroke="black" points="3386.28,-660.64 3192.53,-660.64 3192.53,-621.14 3386.28,-621.14 3386.28,-660.64"/>
<text text-anchor="middle" x="3289.41" y="-643.34" font-family="Times New Roman,serif" font-size="14.00">NONTERMINAL</text>
<text text-anchor="middle" x="3289.41" y="-627.59" font-family="Times New Roman,serif" font-size="14.00">type: Nonterminal.OPERATOR</text>
</g>
<!-- 3&#45;&gt;4 -->
<g id="edge3" class="edge">
<title>3&#45;&gt;4</title>
<path fill="none" stroke="black" d="M3289.41,-696.46C3289.41,-689.14 3289.41,-680.58 3289.41,-672.44"/>
<polygon fill="black" stroke="black" points="3292.91,-672.52 3289.41,-662.52 3285.91,-672.52 3292.91,-672.52"/>
</g>
<!-- 5 -->
<g id="node5" class="node">
<title>5</title>
<polygon fill="none" stroke="black" points="3414.03,-585.14 3164.78,-585.14 3164.78,-545.64 3414.03,-545.64 3414.03,-585.14"/>
<text text-anchor="middle" x="3289.41" y="-567.84" font-family="Times New Roman,serif" font-size="14.00">NONTERMINAL</text>
<text text-anchor="middle" x="3289.41" y="-552.09" font-family="Times New Roman,serif" font-size="14.00">type: Nonterminal.FLOW_STRUCTURE</text>
</g>
<!-- 4&#45;&gt;5 -->
<g id="edge4" class="edge">
<title>4&#45;&gt;5</title>
<path fill="none" stroke="black" d="M3289.41,-620.96C3289.41,-613.64 3289.41,-605.08 3289.41,-596.94"/>
<polygon fill="black" stroke="black" points="3292.91,-597.02 3289.41,-587.02 3285.91,-597.02 3292.91,-597.02"/>
</g>
<!-- 6 -->
<g id="node6" class="node">
<title>6</title>
<polygon fill="none" stroke="black" points="3389.66,-509.64 3189.16,-509.64 3189.16,-470.14 3389.66,-470.14 3389.66,-509.64"/>
<text text-anchor="middle" x="3289.41" y="-492.34" font-family="Times New Roman,serif" font-size="14.00">NONTERMINAL</text>
<text text-anchor="middle" x="3289.41" y="-476.59" font-family="Times New Roman,serif" font-size="14.00">type: Nonterminal.BRANCHING</text>
</g>
<!-- 5&#45;&gt;6 -->
<g id="edge5" class="edge">
<title>5&#45;&gt;6</title>
<path fill="none" stroke="black" d="M3289.41,-545.46C3289.41,-538.14 3289.41,-529.58 3289.41,-521.44"/>
<polygon fill="black" stroke="black" points="3292.91,-521.52 3289.41,-511.52 3285.91,-521.52 3292.91,-521.52"/>
</g>
<!-- 7 -->
<g id="node7" class="node">
<title>7</title>
<ellipse fill="none" stroke="black" cx="336.41" cy="-395.07" rx="336.41" ry="39.07"/>
<text text-anchor="middle" x="336.41" y="-405.39" font-family="Times New Roman,serif" font-size="14.00">KEY</text>
<text text-anchor="middle" x="336.41" y="-389.64" font-family="Times New Roman,serif" font-size="14.00">string: if</text>
<text text-anchor="middle" x="336.41" y="-373.89" font-family="Times New Roman,serif" font-size="14.00">attribute: NodeParams(text=&#39;if&#39;, rows=None, head=None, tail=None, is_key=True)</text>
</g>
<!-- 6&#45;&gt;7 -->
<g id="edge6" class="edge">
<title>6&#45;&gt;7</title>
<path fill="none" stroke="black" d="M3188.8,-487.97C2772.51,-483.98 1183.27,-466.88 682.41,-434.14 647.98,-431.88 611.69,-428.74 576.1,-425.22"/>
<polygon fill="black" stroke="black" points="576.88,-421.78 566.58,-424.27 576.18,-428.75 576.88,-421.78"/>
</g>
<!-- 8 -->
<g id="node8" class="node">
<title>8</title>
<ellipse fill="none" stroke="black" cx="1025.41" cy="-395.07" rx="334.28" ry="39.07"/>
<text text-anchor="middle" x="1025.41" y="-405.39" font-family="Times New Roman,serif" font-size="14.00">KEY</text>
<text text-anchor="middle" x="1025.41" y="-389.64" font-family="Times New Roman,serif" font-size="14.00">string: (</text>
<text text-anchor="middle" x="1025.41" y="-373.89" font-family="Times New Roman,serif" font-size="14.00">attribute: NodeParams(text=&#39;(&#39;, rows=None, head=None, tail=None, is_key=True)</text>
</g>
<!-- 6&#45;&gt;8 -->
<g id="edge7" class="edge">
<title>6&#45;&gt;8</title>
<path fill="none" stroke="black" d="M3188.76,-488.92C2903.21,-488.4 2063.62,-482.54 1368.41,-434.14 1334.83,-431.8 1299.48,-428.65 1264.74,-425.17"/>
<polygon fill="black" stroke="black" points="1265.3,-421.71 1255,-424.18 1264.59,-428.67 1265.3,-421.71"/>
</g>
<!-- 9 -->
<g id="node9" class="node">
<title>9</title>
<polygon fill="none" stroke="black" points="1579.03,-414.82 1377.78,-414.82 1377.78,-375.32 1579.03,-375.32 1579.03,-414.82"/>
<text text-anchor="middle" x="1478.41" y="-397.52" font-family="Times New Roman,serif" font-size="14.00">NONTERMINAL</text>
<text text-anchor="middle" x="1478.41" y="-381.77" font-family="Times New Roman,serif" font-size="14.00">type: Nonterminal.STATEMENT</text>
</g>
<!-- 6&#45;&gt;9 -->
<g id="edge8" class="edge">
<title>6&#45;&gt;9</title>
<path fill="none" stroke="black" d="M3188.93,-487.43C2847.49,-482.23 1744.31,-463.35 1587.41,-434.14 1569.71,-430.84 1551.01,-425.17 1534.19,-419.2"/>
<polygon fill="black" stroke="black" points="1535.45,-415.93 1524.86,-415.77 1533.04,-422.51 1535.45,-415.93"/>
</g>
<!-- 10 -->
<g id="node10" class="node">
<title>10</title>
<ellipse fill="none" stroke="black" cx="1930.41" cy="-395.07" rx="333.75" ry="39.07"/>
<text text-anchor="middle" x="1930.41" y="-405.39" font-family="Times New Roman,serif" font-size="14.00">KEY</text>
<text text-anchor="middle" x="1930.41" y="-389.64" font-family="Times New Roman,serif" font-size="14.00">string: ,</text>
<text text-anchor="middle" x="1930.41" y="-373.89" font-family="Times New Roman,serif" font-size="14.00">attribute: NodeParams(text=&#39;,&#39;, rows=None, head=None, tail=None, is_key=True)</text>
</g>
<!-- 6&#45;&gt;10 -->
<g id="edge9" class="edge">
<title>6&#45;&gt;10</title>
<path fill="none" stroke="black" d="M3188.69,-485.35C3006.06,-478.52 2608.12,-461.71 2273.41,-434.14 2240.95,-431.46 2206.81,-428.21 2173.17,-424.74"/>
<polygon fill="black" stroke="black" points="2173.6,-421.27 2163.29,-423.71 2172.87,-428.23 2173.6,-421.27"/>
</g>
<!-- 11 -->
<g id="node11" class="node">
<title>11</title>
<ellipse fill="none" stroke="black" cx="2616.41" cy="-395.07" rx="334.28" ry="39.07"/>
<text text-anchor="middle" x="2616.41" y="-405.39" font-family="Times New Roman,serif" font-size="14.00">KEY</text>
<text text-anchor="middle" x="2616.41" y="-389.64" font-family="Times New Roman,serif" font-size="14.00">string: (</text>
<text text-anchor="middle" x="2616.41" y="-373.89" font-family="Times New Roman,serif" font-size="14.00">attribute: NodeParams(text=&#39;(&#39;, rows=None, head=None, tail=None, is_key=True)</text>
</g>
<!-- 6&#45;&gt;11 -->
<g id="edge10" class="edge">
<title>6&#45;&gt;11</title>
<path fill="none" stroke="black" d="M3189.01,-475.04C3097.52,-462.42 2959.08,-443.33 2841.24,-427.08"/>
<polygon fill="black" stroke="black" points="2841.79,-423.62 2831.4,-425.72 2840.83,-430.55 2841.79,-423.62"/>
</g>
<!-- 12 -->
<g id="node12" class="node">
<title>12</title>
<polygon fill="none" stroke="black" points="3162.28,-414.82 2968.53,-414.82 2968.53,-375.32 3162.28,-375.32 3162.28,-414.82"/>
<text text-anchor="middle" x="3065.41" y="-397.52" font-family="Times New Roman,serif" font-size="14.00">NONTERMINAL</text>
<text text-anchor="middle" x="3065.41" y="-381.77" font-family="Times New Roman,serif" font-size="14.00">type: Nonterminal.OPERATOR</text>
</g>
<!-- 6&#45;&gt;12 -->
<g id="edge11" class="edge">
<title>6&#45;&gt;12</title>
<path fill="none" stroke="black" d="M3242.99,-469.65C3207.85,-455.09 3159.41,-435.02 3122,-419.52"/>
<polygon fill="black" stroke="black" points="3123.74,-416.45 3113.16,-415.85 3121.06,-422.92 3123.74,-416.45"/>
</g>
<!-- 13 -->
<g id="node13" class="node">
<title>13</title>
<ellipse fill="none" stroke="black" cx="3514.41" cy="-395.07" rx="334.28" ry="39.07"/>
<text text-anchor="middle" x="3514.41" y="-405.39" font-family="Times New Roman,serif" font-size="14.00">KEY</text>
<text text-anchor="middle" x="3514.41" y="-389.64" font-family="Times New Roman,serif" font-size="14.00">string: )</text>
<text text-anchor="middle" x="3514.41" y="-373.89" font-family="Times New Roman,serif" font-size="14.00">attribute: NodeParams(text=&#39;)&#39;, rows=None, head=None, tail=None, is_key=True)</text>
</g>
<!-- 6&#45;&gt;13 -->
<g id="edge12" class="edge">
<title>6&#45;&gt;13</title>
<path fill="none" stroke="black" d="M3336.03,-469.65C3358.74,-460.28 3386.98,-448.63 3414.25,-437.38"/>
<polygon fill="black" stroke="black" points="3415.33,-440.72 3423.24,-433.68 3412.66,-434.25 3415.33,-440.72"/>
</g>
<!-- 14 -->
<g id="node14" class="node">
<title>14</title>
<ellipse fill="none" stroke="black" cx="4200.41" cy="-395.07" rx="333.75" ry="39.07"/>
<text text-anchor="middle" x="4200.41" y="-405.39" font-family="Times New Roman,serif" font-size="14.00">KEY</text>
<text text-anchor="middle" x="4200.41" y="-389.64" font-family="Times New Roman,serif" font-size="14.00">string: ,</text>
<text text-anchor="middle" x="4200.41" y="-373.89" font-family="Times New Roman,serif" font-size="14.00">attribute: NodeParams(text=&#39;,&#39;, rows=None, head=None, tail=None, is_key=True)</text>
</g>
<!-- 6&#45;&gt;14 -->
<g id="edge13" class="edge">
<title>6&#45;&gt;14</title>
<path fill="none" stroke="black" d="M3390,-479.63C3503.56,-469.08 3693.83,-451.1 3857.41,-434.14 3887.93,-430.97 3919.96,-427.55 3951.68,-424.1"/>
<polygon fill="black" stroke="black" points="3951.82,-427.61 3961.38,-423.04 3951.06,-420.65 3951.82,-427.61"/>
</g>
<!-- 15 -->
<g id="node15" class="node">
<title>15</title>
<ellipse fill="none" stroke="black" cx="4886.41" cy="-395.07" rx="334.28" ry="39.07"/>
<text text-anchor="middle" x="4886.41" y="-405.39" font-family="Times New Roman,serif" font-size="14.00">KEY</text>
<text text-anchor="middle" x="4886.41" y="-389.64" font-family="Times New Roman,serif" font-size="14.00">string: (</text>
<text text-anchor="middle" x="4886.41" y="-373.89" font-family="Times New Roman,serif" font-size="14.00">attribute: NodeParams(text=&#39;(&#39;, rows=None, head=None, tail=None, is_key=True)</text>
</g>
<!-- 6&#45;&gt;15 -->
<g id="edge14" class="edge">
<title>6&#45;&gt;15</title>
<path fill="none" stroke="black" d="M3389.92,-486.78C3602.87,-481.81 4115.12,-467.21 4543.41,-434.14 4576.42,-431.59 4611.17,-428.36 4645.36,-424.88"/>
<polygon fill="black" stroke="black" points="4645.34,-428.4 4654.93,-423.89 4644.63,-421.43 4645.34,-428.4"/>
</g>
<!-- 16 -->
<g id="node16" class="node">
<title>16</title>
<polygon fill="none" stroke="black" points="5432.28,-414.82 5238.53,-414.82 5238.53,-375.32 5432.28,-375.32 5432.28,-414.82"/>
<text text-anchor="middle" x="5335.41" y="-397.52" font-family="Times New Roman,serif" font-size="14.00">NONTERMINAL</text>
<text text-anchor="middle" x="5335.41" y="-381.77" font-family="Times New Roman,serif" font-size="14.00">type: Nonterminal.OPERATOR</text>
</g>
<!-- 6&#45;&gt;16 -->
<g id="edge15" class="edge">
<title>6&#45;&gt;16</title>
<path fill="none" stroke="black" d="M3390.13,-487.91C3762.42,-484.03 5048.49,-468.27 5229.41,-434.14 5246.67,-430.88 5264.86,-425.22 5281.22,-419.25"/>
<polygon fill="black" stroke="black" points="5282.13,-422.64 5290.25,-415.83 5279.66,-416.09 5282.13,-422.64"/>
</g>
<!-- 17 -->
<g id="node17" class="node">
<title>17</title>
<ellipse fill="none" stroke="black" cx="5784.41" cy="-395.07" rx="334.28" ry="39.07"/>
<text text-anchor="middle" x="5784.41" y="-405.39" font-family="Times New Roman,serif" font-size="14.00">KEY</text>
<text text-anchor="middle" x="5784.41" y="-389.64" font-family="Times New Roman,serif" font-size="14.00">string: )</text>
<text text-anchor="middle" x="5784.41" y="-373.89" font-family="Times New Roman,serif" font-size="14.00">attribute: NodeParams(text=&#39;)&#39;, rows=None, head=None, tail=None, is_key=True)</text>
</g>
<!-- 6&#45;&gt;17 -->
<g id="edge16" class="edge">
<title>6&#45;&gt;17</title>
<path fill="none" stroke="black" d="M3390.12,-489.36C3697.81,-490.17 4652.56,-487.85 5441.41,-434.14 5475.12,-431.84 5510.62,-428.71 5545.49,-425.22"/>
<polygon fill="black" stroke="black" points="5545.69,-428.72 5555.28,-424.23 5544.98,-421.75 5545.69,-428.72"/>
</g>
<!-- 18 -->
<g id="node18" class="node">
<title>18</title>
<ellipse fill="none" stroke="black" cx="6471.41" cy="-395.07" rx="334.28" ry="39.07"/>
<text text-anchor="middle" x="6471.41" y="-405.39" font-family="Times New Roman,serif" font-size="14.00">KEY</text>
<text text-anchor="middle" x="6471.41" y="-389.64" font-family="Times New Roman,serif" font-size="14.00">string: )</text>
<text text-anchor="middle" x="6471.41" y="-373.89" font-family="Times New Roman,serif" font-size="14.00">attribute: NodeParams(text=&#39;)&#39;, rows=None, head=None, tail=None, is_key=True)</text>
</g>
<!-- 6&#45;&gt;18 -->
<g id="edge17" class="edge">
<title>6&#45;&gt;18</title>
<path fill="none" stroke="black" d="M3389.91,-488.17C3828.64,-484.88 5578.47,-469.73 6127.41,-434.14 6161.78,-431.91 6198,-428.77 6233.53,-425.24"/>
<polygon fill="black" stroke="black" points="6233.42,-428.77 6243.02,-424.28 6232.72,-421.8 6233.42,-428.77"/>
</g>
<!-- 19 -->
<g id="node19" class="node">
<title>19</title>
<polygon fill="none" stroke="black" points="1478.41,-320 1001.16,-249 1478.41,-178 1955.66,-249 1478.41,-320"/>
<text text-anchor="middle" x="1478.41" y="-267.2" font-family="Times New Roman,serif" font-size="14.00">TERMINAL</text>
<text text-anchor="middle" x="1478.41" y="-251.45" font-family="Times New Roman,serif" font-size="14.00">type: Terminal.word</text>
<text text-anchor="middle" x="1478.41" y="-235.7" font-family="Times New Roman,serif" font-size="14.00">string: a</text>
<text text-anchor="middle" x="1478.41" y="-219.95" font-family="Times New Roman,serif" font-size="14.00">attribute: NodeParams(text=&#39;a&#39;, rows=None, head=None, tail=None, is_key=False)</text>
</g>
<!-- 9&#45;&gt;19 -->
<g id="edge18" class="edge">
<title>9&#45;&gt;19</title>
<path fill="none" stroke="black" d="M1478.41,-374.94C1478.41,-363.43 1478.41,-347.91 1478.41,-331.73"/>
<polygon fill="black" stroke="black" points="1481.91,-331.98 1478.41,-321.98 1474.91,-331.98 1481.91,-331.98"/>
</g>
<!-- 20 -->
<g id="node20" class="node">
<title>20</title>
<polygon fill="none" stroke="black" points="3166.03,-268.75 2964.78,-268.75 2964.78,-229.25 3166.03,-229.25 3166.03,-268.75"/>
<text text-anchor="middle" x="3065.41" y="-251.45" font-family="Times New Roman,serif" font-size="14.00">NONTERMINAL</text>
<text text-anchor="middle" x="3065.41" y="-235.7" font-family="Times New Roman,serif" font-size="14.00">type: Nonterminal.STATEMENT</text>
</g>
<!-- 12&#45;&gt;20 -->
<g id="edge19" class="edge">
<title>12&#45;&gt;20</title>
<path fill="none" stroke="black" d="M3065.41,-374.94C3065.41,-350.83 3065.41,-309.09 3065.41,-280.55"/>
<polygon fill="black" stroke="black" points="3068.91,-280.72 3065.41,-270.72 3061.91,-280.72 3068.91,-280.72"/>
</g>
<!-- 21 -->
<g id="node21" class="node">
<title>21</title>
<polygon fill="none" stroke="black" points="5436.03,-268.75 5234.78,-268.75 5234.78,-229.25 5436.03,-229.25 5436.03,-268.75"/>
<text text-anchor="middle" x="5335.41" y="-251.45" font-family="Times New Roman,serif" font-size="14.00">NONTERMINAL</text>
<text text-anchor="middle" x="5335.41" y="-235.7" font-family="Times New Roman,serif" font-size="14.00">type: Nonterminal.STATEMENT</text>
</g>
<!-- 16&#45;&gt;21 -->
<g id="edge20" class="edge">
<title>16&#45;&gt;21</title>
<path fill="none" stroke="black" d="M5335.41,-374.94C5335.41,-350.83 5335.41,-309.09 5335.41,-280.55"/>
<polygon fill="black" stroke="black" points="5338.91,-280.72 5335.41,-270.72 5331.91,-280.72 5338.91,-280.72"/>
</g>
<!-- 22 -->
<g id="node22" class="node">
<title>22</title>
<polygon fill="none" stroke="black" points="3065.41,-142 2558.91,-71 3065.41,0 3571.91,-71 3065.41,-142"/>
<text text-anchor="middle" x="3065.41" y="-89.2" font-family="Times New Roman,serif" font-size="14.00">TERMINAL</text>
<text text-anchor="middle" x="3065.41" y="-73.45" font-family="Times New Roman,serif" font-size="14.00">type: Terminal.word</text>
<text text-anchor="middle" x="3065.41" y="-57.7" font-family="Times New Roman,serif" font-size="14.00">string: a=a+5</text>
<text text-anchor="middle" x="3065.41" y="-41.95" font-family="Times New Roman,serif" font-size="14.00">attribute: NodeParams(text=&#39;a=a+5&#39;, rows=None, head=None, tail=None, is_key=False)</text>
</g>
<!-- 20&#45;&gt;22 -->
<g id="edge21" class="edge">
<title>20&#45;&gt;22</title>
<path fill="none" stroke="black" d="M3065.41,-228.83C3065.41,-210.59 3065.41,-181.85 3065.41,-153.93"/>
<polygon fill="black" stroke="black" points="3068.91,-153.98 3065.41,-143.98 3061.91,-153.98 3068.91,-153.98"/>
</g>
<!-- 23 -->
<g id="node23" class="node">
<title>23</title>
<polygon fill="none" stroke="black" points="5335.41,-142 4828.91,-71 5335.41,0 5841.91,-71 5335.41,-142"/>
<text text-anchor="middle" x="5335.41" y="-89.2" font-family="Times New Roman,serif" font-size="14.00">TERMINAL</text>
<text text-anchor="middle" x="5335.41" y="-73.45" font-family="Times New Roman,serif" font-size="14.00">type: Terminal.word</text>
<text text-anchor="middle" x="5335.41" y="-57.7" font-family="Times New Roman,serif" font-size="14.00">string: a=a+5</text>
<text text-anchor="middle" x="5335.41" y="-41.95" font-family="Times New Roman,serif" font-size="14.00">attribute: NodeParams(text=&#39;a=a+5&#39;, rows=None, head=None, tail=None, is_key=False)</text>
</g>
<!-- 21&#45;&gt;23 -->
<g id="edge22" class="edge">
<title>21&#45;&gt;23</title>
<path fill="none" stroke="black" d="M5335.41,-228.83C5335.41,-210.59 5335.41,-181.85 5335.41,-153.93"/>
<polygon fill="black" stroke="black" points="5338.91,-153.98 5335.41,-143.98 5331.91,-153.98 5338.91,-153.98"/>
</g>
</g>
</svg>
