<?xml version="1.0" encoding="UTF-8" standalone="no"?>
<!DOCTYPE svg PUBLIC "-//W3C//DTD SVG 1.1//EN"
 "http://www.w3.org/Graphics/SVG/1.1/DTD/svg11.dtd">
<!-- Generated by graphviz version 10.0.1 (20240210.2158)
 -->
<!-- Title: ast_attributed Pages: 1 -->
<svg width="2914pt" height="528pt"
 viewBox="0.00 0.00 2914.25 527.50" xmlns="http://www.w3.org/2000/svg" xmlns:xlink="http://www.w3.org/1999/xlink">
<g id="graph0" class="graph" transform="scale(1 1) rotate(0) translate(4 523.5)">
<title>ast_attributed</title>
<polygon fill="white" stroke="none" points="-4,4 -4,-523.5 2910.25,-523.5 2910.25,4 -4,4"/>
<!-- 1 -->
<g id="node1" class="node">
<title>1</title>
<polygon fill="none" stroke="black" points="1515.38,-519.5 1389.12,-519.5 1389.12,-480 1515.38,-480 1515.38,-519.5"/>
<text text-anchor="middle" x="1452.25" y="-502.2" font-family="Times New Roman,serif" font-size="14.00">NONTERMINAL</text>
<text text-anchor="middle" x="1452.25" y="-486.45" font-family="Times New Roman,serif" font-size="14.00">type: Nonterminal.S</text>
</g>
<!-- 2 -->
<g id="node2" class="node">
<title>2</title>
<polygon fill="none" stroke="black" points="1549.88,-444 1354.62,-444 1354.62,-404.5 1549.88,-404.5 1549.88,-444"/>
<text text-anchor="middle" x="1452.25" y="-426.7" font-family="Times New Roman,serif" font-size="14.00">NONTERMINAL</text>
<text text-anchor="middle" x="1452.25" y="-410.95" font-family="Times New Roman,serif" font-size="14.00">type: Nonterminal.FRAGMENT</text>
</g>
<!-- 1&#45;&gt;2 -->
<g id="edge1" class="edge">
<title>1&#45;&gt;2</title>
<path fill="none" stroke="black" d="M1452.25,-479.82C1452.25,-472.51 1452.25,-463.95 1452.25,-455.81"/>
<polygon fill="black" stroke="black" points="1455.75,-455.88 1452.25,-445.88 1448.75,-455.88 1455.75,-455.88"/>
</g>
<!-- 3 -->
<g id="node3" class="node">
<title>3</title>
<polygon fill="none" stroke="black" points="1557.75,-368.5 1346.75,-368.5 1346.75,-329 1557.75,-329 1557.75,-368.5"/>
<text text-anchor="middle" x="1452.25" y="-351.2" font-family="Times New Roman,serif" font-size="14.00">NONTERMINAL</text>
<text text-anchor="middle" x="1452.25" y="-335.45" font-family="Times New Roman,serif" font-size="14.00">type: Nonterminal.CODE_BLOCK</text>
</g>
<!-- 2&#45;&gt;3 -->
<g id="edge2" class="edge">
<title>2&#45;&gt;3</title>
<path fill="none" stroke="black" d="M1452.25,-404.32C1452.25,-397.01 1452.25,-388.45 1452.25,-380.31"/>
<polygon fill="black" stroke="black" points="1455.75,-380.38 1452.25,-370.38 1448.75,-380.38 1455.75,-380.38"/>
</g>
<!-- 4 -->
<g id="node4" class="node">
<title>4</title>
<polygon fill="none" stroke="black" points="1549.12,-293 1355.38,-293 1355.38,-253.5 1549.12,-253.5 1549.12,-293"/>
<text text-anchor="middle" x="1452.25" y="-275.7" font-family="Times New Roman,serif" font-size="14.00">NONTERMINAL</text>
<text text-anchor="middle" x="1452.25" y="-259.95" font-family="Times New Roman,serif" font-size="14.00">type: Nonterminal.OPERATOR</text>
</g>
<!-- 3&#45;&gt;4 -->
<g id="edge3" class="edge">
<title>3&#45;&gt;4</title>
<path fill="none" stroke="black" d="M1452.25,-328.82C1452.25,-321.51 1452.25,-312.95 1452.25,-304.81"/>
<polygon fill="black" stroke="black" points="1455.75,-304.88 1452.25,-294.88 1448.75,-304.88 1455.75,-304.88"/>
</g>
<!-- 5 -->
<g id="node5" class="node">
<title>5</title>
<polygon fill="none" stroke="black" points="1552.88,-217.5 1351.62,-217.5 1351.62,-178 1552.88,-178 1552.88,-217.5"/>
<text text-anchor="middle" x="1452.25" y="-200.2" font-family="Times New Roman,serif" font-size="14.00">NONTERMINAL</text>
<text text-anchor="middle" x="1452.25" y="-184.45" font-family="Times New Roman,serif" font-size="14.00">type: Nonterminal.STATEMENT</text>
</g>
<!-- 4&#45;&gt;5 -->
<g id="edge4" class="edge">
<title>4&#45;&gt;5</title>
<path fill="none" stroke="black" d="M1452.25,-253.32C1452.25,-246.01 1452.25,-237.45 1452.25,-229.31"/>
<polygon fill="black" stroke="black" points="1455.75,-229.38 1452.25,-219.38 1448.75,-229.38 1455.75,-229.38"/>
</g>
<!-- 6 -->
<g id="node6" class="node">
<title>6</title>
<polygon fill="none" stroke="black" points="477.25,-142 0,-71 477.25,0 954.5,-71 477.25,-142"/>
<text text-anchor="middle" x="477.25" y="-89.2" font-family="Times New Roman,serif" font-size="14.00">TERMINAL</text>
<text text-anchor="middle" x="477.25" y="-73.45" font-family="Times New Roman,serif" font-size="14.00">type: Terminal.word</text>
<text text-anchor="middle" x="477.25" y="-57.7" font-family="Times New Roman,serif" font-size="14.00">string: a</text>
<text text-anchor="middle" x="477.25" y="-41.95" font-family="Times New Roman,serif" font-size="14.00">attribute: NodeParams(text=&#39;a&#39;, rows=None, head=None, tail=None, is_key=False)</text>
</g>
<!-- 5&#45;&gt;6 -->
<g id="edge5" class="edge">
<title>5&#45;&gt;6</title>
<path fill="none" stroke="black" d="M1351.46,-186.4C1252.51,-176.03 1097.34,-159.16 963.25,-142 885.38,-132.03 800.64,-120.18 724.05,-109.09"/>
<polygon fill="black" stroke="black" points="724.7,-105.64 714.31,-107.67 723.7,-112.57 724.7,-105.64"/>
</g>
<!-- 7 -->
<g id="node7" class="node">
<title>7</title>
<polygon fill="none" stroke="black" points="1452.25,-142 972.75,-71 1452.25,0 1931.75,-71 1452.25,-142"/>
<text text-anchor="middle" x="1452.25" y="-89.2" font-family="Times New Roman,serif" font-size="14.00">TERMINAL</text>
<text text-anchor="middle" x="1452.25" y="-73.45" font-family="Times New Roman,serif" font-size="14.00">type: Terminal.word</text>
<text text-anchor="middle" x="1452.25" y="-57.7" font-family="Times New Roman,serif" font-size="14.00">string: =</text>
<text text-anchor="middle" x="1452.25" y="-41.95" font-family="Times New Roman,serif" font-size="14.00">attribute: NodeParams(text=&#39;=&#39;, rows=None, head=None, tail=None, is_key=False)</text>
</g>
<!-- 5&#45;&gt;7 -->
<g id="edge6" class="edge">
<title>5&#45;&gt;7</title>
<path fill="none" stroke="black" d="M1452.25,-177.53C1452.25,-170.71 1452.25,-162.53 1452.25,-153.79"/>
<polygon fill="black" stroke="black" points="1455.75,-153.99 1452.25,-143.99 1448.75,-153.99 1455.75,-153.99"/>
</g>
<!-- 8 -->
<g id="node8" class="node">
<title>8</title>
<polygon fill="none" stroke="black" points="2428.25,-142 1950.25,-71 2428.25,0 2906.25,-71 2428.25,-142"/>
<text text-anchor="middle" x="2428.25" y="-89.2" font-family="Times New Roman,serif" font-size="14.00">TERMINAL</text>
<text text-anchor="middle" x="2428.25" y="-73.45" font-family="Times New Roman,serif" font-size="14.00">type: Terminal.word</text>
<text text-anchor="middle" x="2428.25" y="-57.7" font-family="Times New Roman,serif" font-size="14.00">string: 5</text>
<text text-anchor="middle" x="2428.25" y="-41.95" font-family="Times New Roman,serif" font-size="14.00">attribute: NodeParams(text=&#39;5&#39;, rows=None, head=None, tail=None, is_key=False)</text>
</g>
<!-- 5&#45;&gt;8 -->
<g id="edge7" class="edge">
<title>5&#45;&gt;8</title>
<path fill="none" stroke="black" d="M1553.04,-186.4C1651.98,-176.01 1807.15,-159.14 1941.25,-142 2019.28,-132.03 2104.2,-120.17 2180.94,-109.07"/>
<polygon fill="black" stroke="black" points="2181.31,-112.56 2190.71,-107.66 2180.31,-105.63 2181.31,-112.56"/>
</g>
</g>
</svg>
