<?xml version="1.0" encoding="UTF-8" standalone="no"?>
<!DOCTYPE svg PUBLIC "-//W3C//DTD SVG 1.1//EN"
 "http://www.w3.org/Graphics/SVG/1.1/DTD/svg11.dtd">
<!-- Generated by graphviz version 10.0.1 (20240210.2158)
 -->
<!-- Title: ast_attributed Pages: 1 -->
<svg width="5792pt" height="1301pt"
 viewBox="0.00 0.00 5792.25 1301.41" xmlns="http://www.w3.org/2000/svg" xmlns:xlink="http://www.w3.org/1999/xlink">
<g id="graph0" class="graph" transform="scale(1 1) rotate(0) translate(4 1297.41)">
<title>ast_attributed</title>
<polygon fill="white" stroke="none" points="-4,4 -4,-1297.41 5788.25,-1297.41 5788.25,4 -4,4"/>
<!-- 1 -->
<g id="node1" class="node">
<title>1</title>
<polygon fill="none" stroke="black" points="1771.09,-1293.41 1644.84,-1293.41 1644.84,-1253.91 1771.09,-1253.91 1771.09,-1293.41"/>
<text text-anchor="middle" x="1707.97" y="-1276.11" font-family="Times New Roman,serif" font-size="14.00">NONTERMINAL</text>
<text text-anchor="middle" x="1707.97" y="-1260.36" font-family="Times New Roman,serif" font-size="14.00">type: Nonterminal.S</text>
</g>
<!-- 2 -->
<g id="node2" class="node">
<title>2</title>
<polygon fill="none" stroke="black" points="1805.59,-1217.91 1610.34,-1217.91 1610.34,-1178.41 1805.59,-1178.41 1805.59,-1217.91"/>
<text text-anchor="middle" x="1707.97" y="-1200.61" font-family="Times New Roman,serif" font-size="14.00">NONTERMINAL</text>
<text text-anchor="middle" x="1707.97" y="-1184.86" font-family="Times New Roman,serif" font-size="14.00">type: Nonterminal.FRAGMENT</text>
</g>
<!-- 1&#45;&gt;2 -->
<g id="edge1" class="edge">
<title>1&#45;&gt;2</title>
<path fill="none" stroke="black" d="M1707.97,-1253.73C1707.97,-1246.41 1707.97,-1237.85 1707.97,-1229.71"/>
<polygon fill="black" stroke="black" points="1711.47,-1229.79 1707.97,-1219.79 1704.47,-1229.79 1711.47,-1229.79"/>
</g>
<!-- 3 -->
<g id="node3" class="node">
<title>3</title>
<polygon fill="none" stroke="black" points="1813.47,-1142.41 1602.47,-1142.41 1602.47,-1102.91 1813.47,-1102.91 1813.47,-1142.41"/>
<text text-anchor="middle" x="1707.97" y="-1125.11" font-family="Times New Roman,serif" font-size="14.00">NONTERMINAL</text>
<text text-anchor="middle" x="1707.97" y="-1109.36" font-family="Times New Roman,serif" font-size="14.00">type: Nonterminal.CODE_BLOCK</text>
</g>
<!-- 2&#45;&gt;3 -->
<g id="edge2" class="edge">
<title>2&#45;&gt;3</title>
<path fill="none" stroke="black" d="M1707.97,-1178.23C1707.97,-1170.91 1707.97,-1162.35 1707.97,-1154.21"/>
<polygon fill="black" stroke="black" points="1711.47,-1154.29 1707.97,-1144.29 1704.47,-1154.29 1711.47,-1154.29"/>
</g>
<!-- 4 -->
<g id="node4" class="node">
<title>4</title>
<polygon fill="none" stroke="black" points="1804.84,-1066.91 1611.09,-1066.91 1611.09,-1027.41 1804.84,-1027.41 1804.84,-1066.91"/>
<text text-anchor="middle" x="1707.97" y="-1049.61" font-family="Times New Roman,serif" font-size="14.00">NONTERMINAL</text>
<text text-anchor="middle" x="1707.97" y="-1033.86" font-family="Times New Roman,serif" font-size="14.00">type: Nonterminal.OPERATOR</text>
</g>
<!-- 3&#45;&gt;4 -->
<g id="edge3" class="edge">
<title>3&#45;&gt;4</title>
<path fill="none" stroke="black" d="M1707.97,-1102.73C1707.97,-1095.41 1707.97,-1086.85 1707.97,-1078.71"/>
<polygon fill="black" stroke="black" points="1711.47,-1078.79 1707.97,-1068.79 1704.47,-1078.79 1711.47,-1078.79"/>
</g>
<!-- 5 -->
<g id="node5" class="node">
<title>5</title>
<polygon fill="none" stroke="black" points="1806.34,-991.41 1609.59,-991.41 1609.59,-951.91 1806.34,-951.91 1806.34,-991.41"/>
<text text-anchor="middle" x="1707.97" y="-974.11" font-family="Times New Roman,serif" font-size="14.00">NONTERMINAL</text>
<text text-anchor="middle" x="1707.97" y="-958.36" font-family="Times New Roman,serif" font-size="14.00">type: Nonterminal.DEFINITION</text>
</g>
<!-- 4&#45;&gt;5 -->
<g id="edge4" class="edge">
<title>4&#45;&gt;5</title>
<path fill="none" stroke="black" d="M1707.97,-1027.23C1707.97,-1019.91 1707.97,-1011.35 1707.97,-1003.21"/>
<polygon fill="black" stroke="black" points="1711.47,-1003.29 1707.97,-993.29 1704.47,-1003.29 1711.47,-1003.29"/>
</g>
<!-- 6 -->
<g id="node6" class="node">
<title>6</title>
<ellipse fill="none" stroke="black" cx="354.97" cy="-876.84" rx="354.97" ry="39.07"/>
<text text-anchor="middle" x="354.97" y="-887.16" font-family="Times New Roman,serif" font-size="14.00">KEY</text>
<text text-anchor="middle" x="354.97" y="-871.41" font-family="Times New Roman,serif" font-size="14.00">string: define</text>
<text text-anchor="middle" x="354.97" y="-855.66" font-family="Times New Roman,serif" font-size="14.00">attribute: NodeParams(text=&#39;define&#39;, rows=None, head=None, tail=None, is_key=True)</text>
</g>
<!-- 5&#45;&gt;6 -->
<g id="edge5" class="edge">
<title>5&#45;&gt;6</title>
<path fill="none" stroke="black" d="M1609.25,-966.79C1431.18,-959.46 1044.45,-941.92 718.97,-915.91 684.53,-913.15 648.3,-909.85 612.59,-906.36"/>
<polygon fill="black" stroke="black" points="613.33,-902.92 603.03,-905.42 612.64,-909.88 613.33,-902.92"/>
</g>
<!-- 7 -->
<g id="node7" class="node">
<title>7</title>
<ellipse fill="none" stroke="black" cx="1061.97" cy="-876.84" rx="334.28" ry="39.07"/>
<text text-anchor="middle" x="1061.97" y="-887.16" font-family="Times New Roman,serif" font-size="14.00">KEY</text>
<text text-anchor="middle" x="1061.97" y="-871.41" font-family="Times New Roman,serif" font-size="14.00">string: (</text>
<text text-anchor="middle" x="1061.97" y="-855.66" font-family="Times New Roman,serif" font-size="14.00">attribute: NodeParams(text=&#39;(&#39;, rows=None, head=None, tail=None, is_key=True)</text>
</g>
<!-- 5&#45;&gt;7 -->
<g id="edge6" class="edge">
<title>5&#45;&gt;7</title>
<path fill="none" stroke="black" d="M1609.15,-956.46C1522.36,-943.99 1392.95,-925.39 1281.77,-909.42"/>
<polygon fill="black" stroke="black" points="1282.27,-905.96 1271.88,-908 1281.28,-912.88 1282.27,-905.96"/>
</g>
<!-- 8 -->
<g id="node8" class="node">
<title>8</title>
<polygon fill="none" stroke="black" points="1571.84,-896.59 1414.09,-896.59 1414.09,-857.09 1571.84,-857.09 1571.84,-896.59"/>
<text text-anchor="middle" x="1492.97" y="-879.29" font-family="Times New Roman,serif" font-size="14.00">NONTERMINAL</text>
<text text-anchor="middle" x="1492.97" y="-863.54" font-family="Times New Roman,serif" font-size="14.00">type: Nonterminal.NAME</text>
</g>
<!-- 5&#45;&gt;8 -->
<g id="edge7" class="edge">
<title>5&#45;&gt;8</title>
<path fill="none" stroke="black" d="M1663.29,-951.41C1638.95,-940.92 1608.3,-927.71 1580.97,-915.91 1570.2,-911.25 1558.69,-906.28 1547.66,-901.51"/>
<polygon fill="black" stroke="black" points="1549.24,-898.38 1538.67,-897.62 1546.46,-904.8 1549.24,-898.38"/>
</g>
<!-- 9 -->
<g id="node9" class="node">
<title>9</title>
<ellipse fill="none" stroke="black" cx="1923.97" cy="-876.84" rx="333.75" ry="39.07"/>
<text text-anchor="middle" x="1923.97" y="-887.16" font-family="Times New Roman,serif" font-size="14.00">KEY</text>
<text text-anchor="middle" x="1923.97" y="-871.41" font-family="Times New Roman,serif" font-size="14.00">string: ,</text>
<text text-anchor="middle" x="1923.97" y="-855.66" font-family="Times New Roman,serif" font-size="14.00">attribute: NodeParams(text=&#39;,&#39;, rows=None, head=None, tail=None, is_key=True)</text>
</g>
<!-- 5&#45;&gt;9 -->
<g id="edge8" class="edge">
<title>5&#45;&gt;9</title>
<path fill="none" stroke="black" d="M1752.72,-951.42C1774.43,-942.1 1801.4,-930.51 1827.47,-919.3"/>
<polygon fill="black" stroke="black" points="1828.59,-922.63 1836.4,-915.47 1825.83,-916.2 1828.59,-922.63"/>
</g>
<!-- 10 -->
<g id="node10" class="node">
<title>10</title>
<polygon fill="none" stroke="black" points="2428.59,-896.59 2275.34,-896.59 2275.34,-857.09 2428.59,-857.09 2428.59,-896.59"/>
<text text-anchor="middle" x="2351.97" y="-879.29" font-family="Times New Roman,serif" font-size="14.00">NONTERMINAL</text>
<text text-anchor="middle" x="2351.97" y="-863.54" font-family="Times New Roman,serif" font-size="14.00">type: Nonterminal.TYPE</text>
</g>
<!-- 5&#45;&gt;10 -->
<g id="edge9" class="edge">
<title>5&#45;&gt;10</title>
<path fill="none" stroke="black" d="M1806.61,-970.55C1919.64,-968.24 2109.57,-957.67 2266.97,-915.91 2280.03,-912.44 2293.63,-907.18 2306.01,-901.66"/>
<polygon fill="black" stroke="black" points="2307.11,-905.01 2314.72,-897.64 2304.18,-898.66 2307.11,-905.01"/>
</g>
<!-- 11 -->
<g id="node11" class="node">
<title>11</title>
<ellipse fill="none" stroke="black" cx="2780.97" cy="-876.84" rx="334.28" ry="39.07"/>
<text text-anchor="middle" x="2780.97" y="-887.16" font-family="Times New Roman,serif" font-size="14.00">KEY</text>
<text text-anchor="middle" x="2780.97" y="-871.41" font-family="Times New Roman,serif" font-size="14.00">string: )</text>
<text text-anchor="middle" x="2780.97" y="-855.66" font-family="Times New Roman,serif" font-size="14.00">attribute: NodeParams(text=&#39;)&#39;, rows=None, head=None, tail=None, is_key=True)</text>
</g>
<!-- 5&#45;&gt;11 -->
<g id="edge10" class="edge">
<title>5&#45;&gt;11</title>
<path fill="none" stroke="black" d="M1806.65,-964.38C1947.03,-955.19 2212.4,-936.88 2437.97,-915.91 2469.46,-912.98 2502.54,-909.64 2535.23,-906.18"/>
<polygon fill="black" stroke="black" points="2535.21,-909.71 2544.79,-905.17 2534.47,-902.74 2535.21,-909.71"/>
</g>
<!-- 12 -->
<g id="node12" class="node">
<title>12</title>
<polygon fill="none" stroke="black" points="1022.59,-801.77 821.34,-801.77 821.34,-762.27 1022.59,-762.27 1022.59,-801.77"/>
<text text-anchor="middle" x="921.97" y="-784.47" font-family="Times New Roman,serif" font-size="14.00">NONTERMINAL</text>
<text text-anchor="middle" x="921.97" y="-768.72" font-family="Times New Roman,serif" font-size="14.00">type: Nonterminal.STATEMENT</text>
</g>
<!-- 8&#45;&gt;12 -->
<g id="edge11" class="edge">
<title>8&#45;&gt;12</title>
<path fill="none" stroke="black" d="M1455.3,-856.63C1440.03,-849.62 1422.02,-842.32 1404.97,-837.77 1280.72,-804.64 1133.26,-791.55 1034.24,-786.39"/>
<polygon fill="black" stroke="black" points="1034.68,-782.9 1024.52,-785.9 1034.33,-789.89 1034.68,-782.9"/>
</g>
<!-- 13 -->
<g id="node13" class="node">
<title>13</title>
<polygon fill="none" stroke="black" points="2742.72,-801.77 2533.22,-801.77 2533.22,-762.27 2742.72,-762.27 2742.72,-801.77"/>
<text text-anchor="middle" x="2637.97" y="-784.47" font-family="Times New Roman,serif" font-size="14.00">NONTERMINAL</text>
<text text-anchor="middle" x="2637.97" y="-768.72" font-family="Times New Roman,serif" font-size="14.00">type: Nonterminal.TYPE_ARRAY</text>
</g>
<!-- 10&#45;&gt;13 -->
<g id="edge12" class="edge">
<title>10&#45;&gt;13</title>
<path fill="none" stroke="black" d="M2391.72,-856.76C2406.1,-850.25 2422.59,-843.25 2437.97,-837.77 2472.86,-825.35 2512,-814.07 2546.34,-805.02"/>
<polygon fill="black" stroke="black" points="2547.06,-808.46 2555.85,-802.55 2545.29,-801.68 2547.06,-808.46"/>
</g>
<!-- 14 -->
<g id="node14" class="node">
<title>14</title>
<polygon fill="none" stroke="black" points="635.97,-726.27 158.72,-655.27 635.97,-584.27 1113.22,-655.27 635.97,-726.27"/>
<text text-anchor="middle" x="635.97" y="-673.47" font-family="Times New Roman,serif" font-size="14.00">TERMINAL</text>
<text text-anchor="middle" x="635.97" y="-657.72" font-family="Times New Roman,serif" font-size="14.00">type: Terminal.word</text>
<text text-anchor="middle" x="635.97" y="-641.97" font-family="Times New Roman,serif" font-size="14.00">string: a</text>
<text text-anchor="middle" x="635.97" y="-626.22" font-family="Times New Roman,serif" font-size="14.00">attribute: NodeParams(text=&#39;a&#39;, rows=None, head=None, tail=None, is_key=False)</text>
</g>
<!-- 12&#45;&gt;14 -->
<g id="edge13" class="edge">
<title>12&#45;&gt;14</title>
<path fill="none" stroke="black" d="M877.91,-761.8C848,-748.76 806.76,-730.77 766.8,-713.34"/>
<polygon fill="black" stroke="black" points="768.36,-710.2 757.79,-709.41 765.56,-716.61 768.36,-710.2"/>
</g>
<!-- 15 -->
<g id="node15" class="node">
<title>15</title>
<ellipse fill="none" stroke="black" cx="1481.97" cy="-655.27" rx="350.72" ry="39.07"/>
<text text-anchor="middle" x="1481.97" y="-665.6" font-family="Times New Roman,serif" font-size="14.00">KEY</text>
<text text-anchor="middle" x="1481.97" y="-649.85" font-family="Times New Roman,serif" font-size="14.00">string: array</text>
<text text-anchor="middle" x="1481.97" y="-634.1" font-family="Times New Roman,serif" font-size="14.00">attribute: NodeParams(text=&#39;array&#39;, rows=None, head=None, tail=None, is_key=True)</text>
</g>
<!-- 13&#45;&gt;15 -->
<g id="edge14" class="edge">
<title>13&#45;&gt;15</title>
<path fill="none" stroke="black" d="M2532.93,-777.92C2380.25,-772.49 2088.33,-758.57 1841.97,-726.27 1778.23,-717.91 1708.77,-705.26 1648.01,-693"/>
<polygon fill="black" stroke="black" points="1648.75,-689.58 1638.26,-691.02 1647.36,-696.44 1648.75,-689.58"/>
</g>
<!-- 16 -->
<g id="node16" class="node">
<title>16</title>
<ellipse fill="none" stroke="black" cx="2184.97" cy="-655.27" rx="334.28" ry="39.07"/>
<text text-anchor="middle" x="2184.97" y="-665.6" font-family="Times New Roman,serif" font-size="14.00">KEY</text>
<text text-anchor="middle" x="2184.97" y="-649.85" font-family="Times New Roman,serif" font-size="14.00">string: (</text>
<text text-anchor="middle" x="2184.97" y="-634.1" font-family="Times New Roman,serif" font-size="14.00">attribute: NodeParams(text=&#39;(&#39;, rows=None, head=None, tail=None, is_key=True)</text>
</g>
<!-- 13&#45;&gt;16 -->
<g id="edge15" class="edge">
<title>13&#45;&gt;16</title>
<path fill="none" stroke="black" d="M2568.18,-761.8C2503.45,-743.98 2405.24,-716.93 2324.45,-694.68"/>
<polygon fill="black" stroke="black" points="2325.71,-691.4 2315.14,-692.12 2323.85,-698.15 2325.71,-691.4"/>
</g>
<!-- 17 -->
<g id="node17" class="node">
<title>17</title>
<polygon fill="none" stroke="black" points="2738.59,-675.02 2537.34,-675.02 2537.34,-635.52 2738.59,-635.52 2738.59,-675.02"/>
<text text-anchor="middle" x="2637.97" y="-657.72" font-family="Times New Roman,serif" font-size="14.00">NONTERMINAL</text>
<text text-anchor="middle" x="2637.97" y="-641.97" font-family="Times New Roman,serif" font-size="14.00">type: Nonterminal.STATEMENT</text>
</g>
<!-- 13&#45;&gt;17 -->
<g id="edge16" class="edge">
<title>13&#45;&gt;17</title>
<path fill="none" stroke="black" d="M2637.97,-761.8C2637.97,-741.78 2637.97,-710.12 2637.97,-686.7"/>
<polygon fill="black" stroke="black" points="2641.47,-686.82 2637.97,-676.82 2634.47,-686.82 2641.47,-686.82"/>
</g>
<!-- 18 -->
<g id="node18" class="node">
<title>18</title>
<ellipse fill="none" stroke="black" cx="3089.97" cy="-655.27" rx="333.75" ry="39.07"/>
<text text-anchor="middle" x="3089.97" y="-665.6" font-family="Times New Roman,serif" font-size="14.00">KEY</text>
<text text-anchor="middle" x="3089.97" y="-649.85" font-family="Times New Roman,serif" font-size="14.00">string: ,</text>
<text text-anchor="middle" x="3089.97" y="-634.1" font-family="Times New Roman,serif" font-size="14.00">attribute: NodeParams(text=&#39;,&#39;, rows=None, head=None, tail=None, is_key=True)</text>
</g>
<!-- 13&#45;&gt;18 -->
<g id="edge17" class="edge">
<title>13&#45;&gt;18</title>
<path fill="none" stroke="black" d="M2707.6,-761.8C2772.18,-743.98 2870.18,-716.93 2950.79,-694.68"/>
<polygon fill="black" stroke="black" points="2951.37,-698.15 2960.08,-692.12 2949.51,-691.41 2951.37,-698.15"/>
</g>
<!-- 19 -->
<g id="node19" class="node">
<title>19</title>
<polygon fill="none" stroke="black" points="3594.59,-675.02 3441.34,-675.02 3441.34,-635.52 3594.59,-635.52 3594.59,-675.02"/>
<text text-anchor="middle" x="3517.97" y="-657.72" font-family="Times New Roman,serif" font-size="14.00">NONTERMINAL</text>
<text text-anchor="middle" x="3517.97" y="-641.97" font-family="Times New Roman,serif" font-size="14.00">type: Nonterminal.TYPE</text>
</g>
<!-- 13&#45;&gt;19 -->
<g id="edge18" class="edge">
<title>13&#45;&gt;19</title>
<path fill="none" stroke="black" d="M2743.06,-781.67C2929.59,-781.54 3310.45,-775.04 3432.97,-726.27 3456.41,-716.94 3478.28,-698.62 3493.96,-683.06"/>
<polygon fill="black" stroke="black" points="3496.05,-685.93 3500.52,-676.33 3491.03,-681.05 3496.05,-685.93"/>
</g>
<!-- 20 -->
<g id="node20" class="node">
<title>20</title>
<ellipse fill="none" stroke="black" cx="3946.97" cy="-655.27" rx="334.28" ry="39.07"/>
<text text-anchor="middle" x="3946.97" y="-665.6" font-family="Times New Roman,serif" font-size="14.00">KEY</text>
<text text-anchor="middle" x="3946.97" y="-649.85" font-family="Times New Roman,serif" font-size="14.00">string: )</text>
<text text-anchor="middle" x="3946.97" y="-634.1" font-family="Times New Roman,serif" font-size="14.00">attribute: NodeParams(text=&#39;)&#39;, rows=None, head=None, tail=None, is_key=True)</text>
</g>
<!-- 13&#45;&gt;20 -->
<g id="edge19" class="edge">
<title>13&#45;&gt;20</title>
<path fill="none" stroke="black" d="M2743.14,-780.03C2921.1,-777.25 3292.67,-766.64 3603.97,-726.27 3665.26,-718.32 3731.98,-705.64 3790.15,-693.24"/>
<polygon fill="black" stroke="black" points="3790.77,-696.69 3799.81,-691.17 3789.3,-689.85 3790.77,-696.69"/>
</g>
<!-- 21 -->
<g id="node21" class="node">
<title>21</title>
<polygon fill="none" stroke="black" points="2637.97,-548.27 2136.72,-477.27 2637.97,-406.27 3139.22,-477.27 2637.97,-548.27"/>
<text text-anchor="middle" x="2637.97" y="-495.47" font-family="Times New Roman,serif" font-size="14.00">TERMINAL</text>
<text text-anchor="middle" x="2637.97" y="-479.72" font-family="Times New Roman,serif" font-size="14.00">type: Terminal.other</text>
<text text-anchor="middle" x="2637.97" y="-463.97" font-family="Times New Roman,serif" font-size="14.00">string: [1..n]</text>
<text text-anchor="middle" x="2637.97" y="-448.22" font-family="Times New Roman,serif" font-size="14.00">attribute: NodeParams(text=&#39;[1..n]&#39;, rows=None, head=None, tail=None, is_key=False)</text>
</g>
<!-- 17&#45;&gt;21 -->
<g id="edge20" class="edge">
<title>17&#45;&gt;21</title>
<path fill="none" stroke="black" d="M2637.97,-635.1C2637.97,-616.86 2637.97,-588.12 2637.97,-560.2"/>
<polygon fill="black" stroke="black" points="2641.47,-560.25 2637.97,-550.25 2634.47,-560.25 2641.47,-560.25"/>
</g>
<!-- 22 -->
<g id="node22" class="node">
<title>22</title>
<polygon fill="none" stroke="black" points="3626.09,-497.02 3409.84,-497.02 3409.84,-457.52 3626.09,-457.52 3626.09,-497.02"/>
<text text-anchor="middle" x="3517.97" y="-479.72" font-family="Times New Roman,serif" font-size="14.00">NONTERMINAL</text>
<text text-anchor="middle" x="3517.97" y="-463.97" font-family="Times New Roman,serif" font-size="14.00">type: Nonterminal.TYPE_STRUCT</text>
</g>
<!-- 19&#45;&gt;22 -->
<g id="edge21" class="edge">
<title>19&#45;&gt;22</title>
<path fill="none" stroke="black" d="M3517.97,-635.1C3517.97,-604.68 3517.97,-545.1 3517.97,-508.77"/>
<polygon fill="black" stroke="black" points="3521.47,-508.93 3517.97,-498.93 3514.47,-508.93 3521.47,-508.93"/>
</g>
<!-- 23 -->
<g id="node23" class="node">
<title>23</title>
<ellipse fill="none" stroke="black" cx="1308.97" cy="-331.2" rx="353.38" ry="39.07"/>
<text text-anchor="middle" x="1308.97" y="-341.53" font-family="Times New Roman,serif" font-size="14.00">KEY</text>
<text text-anchor="middle" x="1308.97" y="-325.78" font-family="Times New Roman,serif" font-size="14.00">string: struct</text>
<text text-anchor="middle" x="1308.97" y="-310.03" font-family="Times New Roman,serif" font-size="14.00">attribute: NodeParams(text=&#39;struct&#39;, rows=None, head=None, tail=None, is_key=True)</text>
</g>
<!-- 22&#45;&gt;23 -->
<g id="edge22" class="edge">
<title>22&#45;&gt;23</title>
<path fill="none" stroke="black" d="M3437.33,-457.09C3362.75,-440.29 3248.57,-416.94 3147.97,-406.27 2495.43,-337.05 2326.8,-412.52 1671.97,-370.27 1635.85,-367.94 1597.78,-364.76 1560.43,-361.21"/>
<polygon fill="black" stroke="black" points="1561.19,-357.77 1550.9,-360.3 1560.52,-364.74 1561.19,-357.77"/>
</g>
<!-- 24 -->
<g id="node24" class="node">
<title>24</title>
<ellipse fill="none" stroke="black" cx="2014.97" cy="-331.2" rx="334.28" ry="39.07"/>
<text text-anchor="middle" x="2014.97" y="-341.53" font-family="Times New Roman,serif" font-size="14.00">KEY</text>
<text text-anchor="middle" x="2014.97" y="-325.78" font-family="Times New Roman,serif" font-size="14.00">string: (</text>
<text text-anchor="middle" x="2014.97" y="-310.03" font-family="Times New Roman,serif" font-size="14.00">attribute: NodeParams(text=&#39;(&#39;, rows=None, head=None, tail=None, is_key=True)</text>
</g>
<!-- 22&#45;&gt;24 -->
<g id="edge23" class="edge">
<title>22&#45;&gt;24</title>
<path fill="none" stroke="black" d="M3434.73,-457.03C3360.07,-440.61 3247.32,-417.87 3147.97,-406.27 2798.86,-365.5 2708.37,-397.67 2357.97,-370.27 2325.09,-367.7 2290.49,-364.47 2256.44,-361"/>
<polygon fill="black" stroke="black" points="2257.21,-357.56 2246.91,-360.01 2256.49,-364.52 2257.21,-357.56"/>
</g>
<!-- 25 -->
<g id="node25" class="node">
<title>25</title>
<polygon fill="none" stroke="black" points="2524.84,-350.95 2367.09,-350.95 2367.09,-311.45 2524.84,-311.45 2524.84,-350.95"/>
<text text-anchor="middle" x="2445.97" y="-333.65" font-family="Times New Roman,serif" font-size="14.00">NONTERMINAL</text>
<text text-anchor="middle" x="2445.97" y="-317.9" font-family="Times New Roman,serif" font-size="14.00">type: Nonterminal.NAME</text>
</g>
<!-- 22&#45;&gt;25 -->
<g id="edge24" class="edge">
<title>22&#45;&gt;25</title>
<path fill="none" stroke="black" d="M3433.22,-457.02C3358.54,-440.84 3246.59,-418.44 3147.97,-406.27 2876.67,-372.79 2799.91,-433.5 2533.97,-370.27 2520.04,-366.96 2505.54,-361.58 2492.42,-355.89"/>
<polygon fill="black" stroke="black" points="2494.17,-352.84 2483.61,-351.91 2491.29,-359.22 2494.17,-352.84"/>
</g>
<!-- 26 -->
<g id="node26" class="node">
<title>26</title>
<ellipse fill="none" stroke="black" cx="2875.97" cy="-331.2" rx="333.22" ry="39.07"/>
<text text-anchor="middle" x="2875.97" y="-341.53" font-family="Times New Roman,serif" font-size="14.00">KEY</text>
<text text-anchor="middle" x="2875.97" y="-325.78" font-family="Times New Roman,serif" font-size="14.00">string: :</text>
<text text-anchor="middle" x="2875.97" y="-310.03" font-family="Times New Roman,serif" font-size="14.00">attribute: NodeParams(text=&#39;:&#39;, rows=None, head=None, tail=None, is_key=True)</text>
</g>
<!-- 22&#45;&gt;26 -->
<g id="edge25" class="edge">
<title>22&#45;&gt;26</title>
<path fill="none" stroke="black" d="M3432.38,-457.07C3332.39,-434.63 3164.7,-397 3039.5,-368.9"/>
<polygon fill="black" stroke="black" points="3040.28,-365.49 3029.76,-366.71 3038.75,-372.32 3040.28,-365.49"/>
</g>
<!-- 27 -->
<g id="node27" class="node">
<title>27</title>
<polygon fill="none" stroke="black" points="3380.59,-350.95 3227.34,-350.95 3227.34,-311.45 3380.59,-311.45 3380.59,-350.95"/>
<text text-anchor="middle" x="3303.97" y="-333.65" font-family="Times New Roman,serif" font-size="14.00">NONTERMINAL</text>
<text text-anchor="middle" x="3303.97" y="-317.9" font-family="Times New Roman,serif" font-size="14.00">type: Nonterminal.TYPE</text>
</g>
<!-- 22&#45;&gt;27 -->
<g id="edge26" class="edge">
<title>22&#45;&gt;27</title>
<path fill="none" stroke="black" d="M3489.55,-457.14C3451.58,-431.58 3384.18,-386.2 3341.9,-357.74"/>
<polygon fill="black" stroke="black" points="3344.01,-354.94 3333.76,-352.26 3340.1,-360.75 3344.01,-354.94"/>
</g>
<!-- 28 -->
<g id="node28" class="node">
<title>28</title>
<ellipse fill="none" stroke="black" cx="3731.97" cy="-331.2" rx="333.75" ry="39.07"/>
<text text-anchor="middle" x="3731.97" y="-341.53" font-family="Times New Roman,serif" font-size="14.00">KEY</text>
<text text-anchor="middle" x="3731.97" y="-325.78" font-family="Times New Roman,serif" font-size="14.00">string: ,</text>
<text text-anchor="middle" x="3731.97" y="-310.03" font-family="Times New Roman,serif" font-size="14.00">attribute: NodeParams(text=&#39;,&#39;, rows=None, head=None, tail=None, is_key=True)</text>
</g>
<!-- 22&#45;&gt;28 -->
<g id="edge27" class="edge">
<title>22&#45;&gt;28</title>
<path fill="none" stroke="black" d="M3546.39,-457.14C3576.8,-436.66 3626.11,-403.47 3666.25,-376.44"/>
<polygon fill="black" stroke="black" points="3668.12,-379.4 3674.46,-370.92 3664.21,-373.6 3668.12,-379.4"/>
</g>
<!-- 29 -->
<g id="node29" class="node">
<title>29</title>
<polygon fill="none" stroke="black" points="4241.84,-350.95 4084.09,-350.95 4084.09,-311.45 4241.84,-311.45 4241.84,-350.95"/>
<text text-anchor="middle" x="4162.97" y="-333.65" font-family="Times New Roman,serif" font-size="14.00">NONTERMINAL</text>
<text text-anchor="middle" x="4162.97" y="-317.9" font-family="Times New Roman,serif" font-size="14.00">type: Nonterminal.NAME</text>
</g>
<!-- 22&#45;&gt;29 -->
<g id="edge28" class="edge">
<title>22&#45;&gt;29</title>
<path fill="none" stroke="black" d="M3626.46,-462.84C3739.97,-447.12 3922.54,-417.12 4074.97,-370.27 4087.64,-366.37 4100.95,-361.22 4113.27,-355.96"/>
<polygon fill="black" stroke="black" points="4114.66,-359.17 4122.42,-351.95 4111.85,-352.76 4114.66,-359.17"/>
</g>
<!-- 30 -->
<g id="node30" class="node">
<title>30</title>
<ellipse fill="none" stroke="black" cx="4592.97" cy="-331.2" rx="333.22" ry="39.07"/>
<text text-anchor="middle" x="4592.97" y="-341.53" font-family="Times New Roman,serif" font-size="14.00">KEY</text>
<text text-anchor="middle" x="4592.97" y="-325.78" font-family="Times New Roman,serif" font-size="14.00">string: :</text>
<text text-anchor="middle" x="4592.97" y="-310.03" font-family="Times New Roman,serif" font-size="14.00">attribute: NodeParams(text=&#39;:&#39;, rows=None, head=None, tail=None, is_key=True)</text>
</g>
<!-- 22&#45;&gt;30 -->
<g id="edge29" class="edge">
<title>22&#45;&gt;30</title>
<path fill="none" stroke="black" d="M3626.46,-461.73C3798.57,-438.67 4137.9,-393.19 4365.15,-362.73"/>
<polygon fill="black" stroke="black" points="4365.27,-366.25 4374.72,-361.45 4364.34,-359.31 4365.27,-366.25"/>
</g>
<!-- 31 -->
<g id="node31" class="node">
<title>31</title>
<polygon fill="none" stroke="black" points="5097.59,-350.95 4944.34,-350.95 4944.34,-311.45 5097.59,-311.45 5097.59,-350.95"/>
<text text-anchor="middle" x="5020.97" y="-333.65" font-family="Times New Roman,serif" font-size="14.00">NONTERMINAL</text>
<text text-anchor="middle" x="5020.97" y="-317.9" font-family="Times New Roman,serif" font-size="14.00">type: Nonterminal.TYPE</text>
</g>
<!-- 22&#45;&gt;31 -->
<g id="edge30" class="edge">
<title>22&#45;&gt;31</title>
<path fill="none" stroke="black" d="M3626.36,-472.94C3913.22,-463.37 4687.23,-432.39 4934.97,-370.27 4948.33,-366.92 4962.23,-361.64 4974.85,-356.07"/>
<polygon fill="black" stroke="black" points="4976.12,-359.34 4983.75,-351.99 4973.2,-352.98 4976.12,-359.34"/>
</g>
<!-- 32 -->
<g id="node32" class="node">
<title>32</title>
<ellipse fill="none" stroke="black" cx="5449.97" cy="-331.2" rx="334.28" ry="39.07"/>
<text text-anchor="middle" x="5449.97" y="-341.53" font-family="Times New Roman,serif" font-size="14.00">KEY</text>
<text text-anchor="middle" x="5449.97" y="-325.78" font-family="Times New Roman,serif" font-size="14.00">string: )</text>
<text text-anchor="middle" x="5449.97" y="-310.03" font-family="Times New Roman,serif" font-size="14.00">attribute: NodeParams(text=&#39;)&#39;, rows=None, head=None, tail=None, is_key=True)</text>
</g>
<!-- 22&#45;&gt;32 -->
<g id="edge31" class="edge">
<title>22&#45;&gt;32</title>
<path fill="none" stroke="black" d="M3626.47,-470.68C3883.76,-457.06 4551.01,-419.64 5106.97,-370.27 5138.87,-367.44 5172.41,-364.13 5205.5,-360.66"/>
<polygon fill="black" stroke="black" points="5205.62,-364.17 5215.2,-359.64 5204.89,-357.21 5205.62,-364.17"/>
</g>
<!-- 33 -->
<g id="node33" class="node">
<title>33</title>
<polygon fill="none" stroke="black" points="2546.59,-236.82 2345.34,-236.82 2345.34,-197.32 2546.59,-197.32 2546.59,-236.82"/>
<text text-anchor="middle" x="2445.97" y="-219.52" font-family="Times New Roman,serif" font-size="14.00">NONTERMINAL</text>
<text text-anchor="middle" x="2445.97" y="-203.77" font-family="Times New Roman,serif" font-size="14.00">type: Nonterminal.STATEMENT</text>
</g>
<!-- 25&#45;&gt;33 -->
<g id="edge32" class="edge">
<title>25&#45;&gt;33</title>
<path fill="none" stroke="black" d="M2445.97,-311.18C2445.97,-294.02 2445.97,-268.49 2445.97,-248.5"/>
<polygon fill="black" stroke="black" points="2449.47,-248.7 2445.97,-238.7 2442.47,-248.7 2449.47,-248.7"/>
</g>
<!-- 34 -->
<g id="node34" class="node">
<title>34</title>
<ellipse fill="none" stroke="black" cx="3303.97" cy="-217.07" rx="357.09" ry="39.07"/>
<text text-anchor="middle" x="3303.97" y="-227.39" font-family="Times New Roman,serif" font-size="14.00">KEY</text>
<text text-anchor="middle" x="3303.97" y="-211.64" font-family="Times New Roman,serif" font-size="14.00">string: integer</text>
<text text-anchor="middle" x="3303.97" y="-195.89" font-family="Times New Roman,serif" font-size="14.00">attribute: NodeParams(text=&#39;integer&#39;, rows=None, head=None, tail=None, is_key=True)</text>
</g>
<!-- 27&#45;&gt;34 -->
<g id="edge33" class="edge">
<title>27&#45;&gt;34</title>
<path fill="none" stroke="black" d="M3303.97,-311.18C3303.97,-299.11 3303.97,-282.9 3303.97,-267.39"/>
<polygon fill="black" stroke="black" points="3307.47,-267.8 3303.97,-257.8 3300.47,-267.8 3307.47,-267.8"/>
</g>
<!-- 35 -->
<g id="node35" class="node">
<title>35</title>
<polygon fill="none" stroke="black" points="4204.59,-236.82 4003.34,-236.82 4003.34,-197.32 4204.59,-197.32 4204.59,-236.82"/>
<text text-anchor="middle" x="4103.97" y="-219.52" font-family="Times New Roman,serif" font-size="14.00">NONTERMINAL</text>
<text text-anchor="middle" x="4103.97" y="-203.77" font-family="Times New Roman,serif" font-size="14.00">type: Nonterminal.STATEMENT</text>
</g>
<!-- 29&#45;&gt;35 -->
<g id="edge34" class="edge">
<title>29&#45;&gt;35</title>
<path fill="none" stroke="black" d="M4152.96,-311.18C4143.72,-293.62 4129.86,-267.29 4119.24,-247.1"/>
<polygon fill="black" stroke="black" points="4122.48,-245.74 4114.73,-238.52 4116.29,-249 4122.48,-245.74"/>
</g>
<!-- 36 -->
<g id="node36" class="node">
<title>36</title>
<polygon fill="none" stroke="black" points="5136.59,-236.82 4935.34,-236.82 4935.34,-197.32 5136.59,-197.32 5136.59,-236.82"/>
<text text-anchor="middle" x="5035.97" y="-219.52" font-family="Times New Roman,serif" font-size="14.00">NONTERMINAL</text>
<text text-anchor="middle" x="5035.97" y="-203.77" font-family="Times New Roman,serif" font-size="14.00">type: Nonterminal.STATEMENT</text>
</g>
<!-- 31&#45;&gt;36 -->
<g id="edge35" class="edge">
<title>31&#45;&gt;36</title>
<path fill="none" stroke="black" d="M5023.51,-311.18C5025.81,-294.02 5029.22,-268.49 5031.9,-248.5"/>
<polygon fill="black" stroke="black" points="5035.35,-249.06 5033.21,-238.68 5028.41,-248.13 5035.35,-249.06"/>
</g>
<!-- 37 -->
<g id="node37" class="node">
<title>37</title>
<polygon fill="none" stroke="black" points="2445.97,-142 1967.97,-71 2445.97,0 2923.97,-71 2445.97,-142"/>
<text text-anchor="middle" x="2445.97" y="-89.2" font-family="Times New Roman,serif" font-size="14.00">TERMINAL</text>
<text text-anchor="middle" x="2445.97" y="-73.45" font-family="Times New Roman,serif" font-size="14.00">type: Terminal.word</text>
<text text-anchor="middle" x="2445.97" y="-57.7" font-family="Times New Roman,serif" font-size="14.00">string: k</text>
<text text-anchor="middle" x="2445.97" y="-41.95" font-family="Times New Roman,serif" font-size="14.00">attribute: NodeParams(text=&#39;k&#39;, rows=None, head=None, tail=None, is_key=False)</text>
</g>
<!-- 33&#45;&gt;37 -->
<g id="edge36" class="edge">
<title>33&#45;&gt;37</title>
<path fill="none" stroke="black" d="M2445.97,-196.94C2445.97,-185.43 2445.97,-169.91 2445.97,-153.73"/>
<polygon fill="black" stroke="black" points="2449.47,-153.98 2445.97,-143.98 2442.47,-153.98 2449.47,-153.98"/>
</g>
<!-- 38 -->
<g id="node38" class="node">
<title>38</title>
<polygon fill="none" stroke="black" points="4073.97,-142 3599.72,-71 4073.97,0 4548.22,-71 4073.97,-142"/>
<text text-anchor="middle" x="4073.97" y="-89.2" font-family="Times New Roman,serif" font-size="14.00">TERMINAL</text>
<text text-anchor="middle" x="4073.97" y="-73.45" font-family="Times New Roman,serif" font-size="14.00">type: Terminal.word</text>
<text text-anchor="middle" x="4073.97" y="-57.7" font-family="Times New Roman,serif" font-size="14.00">string: l</text>
<text text-anchor="middle" x="4073.97" y="-41.95" font-family="Times New Roman,serif" font-size="14.00">attribute: NodeParams(text=&#39;l&#39;, rows=None, head=None, tail=None, is_key=False)</text>
</g>
<!-- 35&#45;&gt;38 -->
<g id="edge37" class="edge">
<title>35&#45;&gt;38</title>
<path fill="none" stroke="black" d="M4099.98,-196.94C4097.47,-184.88 4094.05,-168.42 4090.5,-151.4"/>
<polygon fill="black" stroke="black" points="4093.94,-150.74 4088.47,-141.67 4087.09,-152.17 4093.94,-150.74"/>
</g>
<!-- 39 -->
<g id="node39" class="node">
<title>39</title>
<polygon fill="none" stroke="black" points="5050.97,-142 4566.22,-71 5050.97,0 5535.72,-71 5050.97,-142"/>
<text text-anchor="middle" x="5050.97" y="-89.2" font-family="Times New Roman,serif" font-size="14.00">TERMINAL</text>
<text text-anchor="middle" x="5050.97" y="-73.45" font-family="Times New Roman,serif" font-size="14.00">type: Terminal.other</text>
<text text-anchor="middle" x="5050.97" y="-57.7" font-family="Times New Roman,serif" font-size="14.00">string: in</text>
<text text-anchor="middle" x="5050.97" y="-41.95" font-family="Times New Roman,serif" font-size="14.00">attribute: NodeParams(text=&#39;\in&#39;, rows=None, head=None, tail=None, is_key=False)</text>
</g>
<!-- 36&#45;&gt;39 -->
<g id="edge38" class="edge">
<title>36&#45;&gt;39</title>
<path fill="none" stroke="black" d="M5037.96,-196.94C5039.2,-185.07 5040.88,-168.93 5042.62,-152.2"/>
<polygon fill="black" stroke="black" points="5046.06,-152.97 5043.61,-142.67 5039.09,-152.25 5046.06,-152.97"/>
</g>
</g>
</svg>
